<svg width="23" height="22" viewBox="0 0 23 22" fill="none" xmlns="http://www.w3.org/2000/svg">
<g clip-path="url(#clip0_8882_1373)">
<g clip-path="url(#clip1_8882_1373)">
<path d="M2.75001 5.50016H11.9167C12.4029 5.50016 12.8692 5.30701 13.213 4.96319C13.5569 4.61937 13.75 4.15306 13.75 3.66683C13.75 3.1806 13.5569 2.71428 13.213 2.37047C12.8692 2.02665 12.4029 1.83349 11.9167 1.83349L2.75001 1.83349C2.26378 1.83349 1.79746 2.02665 1.45365 2.37047C1.10983 2.71428 0.916676 3.1806 0.916676 3.66683C0.916676 4.15306 1.10983 4.61937 1.45365 4.96319C1.79746 5.30701 2.26378 5.50016 2.75001 5.50016ZM18.3333 6.41683C19.0627 6.41683 19.7622 6.1271 20.2779 5.61137C20.7936 5.09565 21.0833 4.39617 21.0833 3.66683C21.0833 2.93748 20.7936 2.23801 20.2779 1.72228C19.7622 1.20656 19.0627 0.916828 18.3333 0.916828C17.604 0.916828 16.9045 1.20656 16.3888 1.72228C15.8731 2.23801 15.5833 2.93748 15.5833 3.66683C15.5833 4.39617 15.8731 5.09565 16.3888 5.61137C16.9045 6.1271 17.604 6.41683 18.3333 6.41683ZM2.75001 12.8335H11.9167C12.4029 12.8335 12.8692 12.6403 13.213 12.2965C13.5569 11.9527 13.75 11.4864 13.75 11.0002C13.75 10.5139 13.5569 10.0476 13.213 9.7038C12.8692 9.35998 12.4029 9.16683 11.9167 9.16683H2.75001C2.26378 9.16683 1.79746 9.35998 1.45365 9.7038C1.10983 10.0476 0.916676 10.5139 0.916676 11.0002C0.916676 11.4864 1.10983 11.9527 1.45365 12.2965C1.79746 12.6403 2.26378 12.8335 2.75001 12.8335ZM18.3333 13.7502C19.0627 13.7502 19.7622 13.4604 20.2779 12.9447C20.7936 12.429 21.0833 11.7295 21.0833 11.0002C21.0833 10.2708 20.7936 9.57134 20.2779 9.05562C19.7622 8.53989 19.0627 8.25016 18.3333 8.25016C17.604 8.25016 16.9045 8.53989 16.3888 9.05562C15.8731 9.57134 15.5833 10.2708 15.5833 11.0002C15.5833 11.7295 15.8731 12.429 16.3888 12.9447C16.9045 13.4604 17.604 13.7502 18.3333 13.7502ZM11.9167 16.5002L2.75001 16.5002C2.26378 16.5002 1.79746 16.6933 1.45365 17.0371C1.10983 17.3809 0.916676 17.8473 0.916676 18.3335C0.916676 18.8197 1.10983 19.286 1.45365 19.6299C1.79746 19.9737 2.26378 20.1668 2.75001 20.1668L11.9167 20.1668C12.4029 20.1668 12.8692 19.9737 13.213 19.6299C13.5569 19.286 13.75 18.8197 13.75 18.3335C13.75 17.8473 13.5569 17.3809 13.213 17.0371C12.8692 16.6933 12.4029 16.5002 11.9167 16.5002ZM15.5833 18.3335C15.5833 17.9724 15.6545 17.6148 15.7927 17.2811C15.9309 16.9475 16.1334 16.6443 16.3888 16.389C16.6442 16.1336 16.9473 15.931 17.281 15.7928C17.6146 15.6546 17.9722 15.5835 18.3333 15.5835C18.6945 15.5835 19.0521 15.6546 19.3857 15.7928C19.7194 15.931 20.0225 16.1336 20.2779 16.389C20.5332 16.6443 20.7358 16.9475 20.874 17.2811C21.0122 17.6148 21.0833 17.9724 21.0833 18.3335C21.0833 19.0628 20.7936 19.7623 20.2779 20.278C19.7622 20.7938 19.0627 21.0835 18.3333 21.0835C17.604 21.0835 16.9045 20.7938 16.3888 20.278C15.8731 19.7623 15.5833 19.0628 15.5833 18.3335Z" fill="#191919"/>
</g>
</g>
<defs>
<clipPath id="clip0_8882_1373">
<rect width="22.6719" height="22" fill="white"/>
</clipPath>
<clipPath id="clip1_8882_1373">
<rect width="22" height="22" fill="white" transform="matrix(-1 0 0 -1 22 22)"/>
</clipPath>
</defs>
</svg>
