<svg width="23" height="23" viewBox="0 0 23 23" fill="none" xmlns="http://www.w3.org/2000/svg">
<path d="M17.9166 9.78923C17.9166 11.3303 17.4596 12.8367 16.6035 14.118C15.7473 15.3994 14.5304 16.3981 13.1067 16.9878C11.6829 17.5775 10.1163 17.7318 8.60484 17.4312C7.09341 17.1305 5.70507 16.3885 4.61538 15.2988C3.5257 14.2091 2.78361 12.8207 2.48297 11.3093C2.18233 9.79787 2.33663 8.23122 2.92636 6.80748C3.51609 5.38374 4.51477 4.16685 5.7961 3.31069C7.07744 2.45453 8.58388 1.99756 10.1249 1.99756C12.1914 1.99756 14.1732 2.81846 15.6345 4.27969C17.0957 5.74091 17.9166 7.72275 17.9166 9.78923Z" stroke="#262626" stroke-width="2" stroke-linecap="round" stroke-linejoin="round"/>
<path d="M15.635 15.2993L20.6666 20.3309" stroke="#262626" stroke-width="2" stroke-linecap="round" stroke-linejoin="round"/>
</svg>
