<svg width="17" height="17" viewBox="0 0 17 17" fill="none" xmlns="http://www.w3.org/2000/svg">
<g clip-path="url(#clip0_1785_3639)">
<path d="M3.16725 3.37256C3.01391 3.3719 2.86286 3.40972 2.72792 3.48256L2.39957 3.6598L3.16667 3.62256M3.16725 3.37256C3.16747 3.37256 3.16769 3.37256 3.16792 3.37256L3.16667 3.62256M3.16725 3.37256H3.16667V3.62256M3.16725 3.37256H13.8328M3.16667 3.62256H13.8333M13.8328 3.37256C13.8325 3.37256 13.8323 3.37256 13.8321 3.37256L13.8333 3.62256M13.8328 3.37256C13.9861 3.3719 14.1371 3.40972 14.2721 3.48256L14.6004 3.6598L14.3116 3.89606L9.29167 8.00269C9.29165 8.00271 9.29164 8.00272 9.29163 8.00273C9.06829 8.18549 8.78859 8.28535 8.5 8.28535C8.21141 8.28535 7.93171 8.18549 7.70837 8.00273C7.70836 8.00272 7.70835 8.00271 7.70833 8.00269L7.86667 7.80923L13.8333 3.62256M13.8328 3.37256H13.8333V3.62256M2.84667 3.70256L3.00496 3.50906L3.14404 3.62283C3.04016 3.62584 2.9383 3.6531 2.84667 3.70256ZM2.84667 3.70256L2.96542 3.92256C2.99786 3.90504 3.03236 3.89198 3.06798 3.88361L2.84667 3.70256ZM14.1533 3.70256L13.932 3.88361C13.9676 3.89198 14.0021 3.90504 14.0346 3.92256L14.1533 3.70256ZM14.1533 3.70256L13.995 3.50906L13.856 3.62283C13.9598 3.62584 14.0617 3.6531 14.1533 3.70256ZM2.25 5.47445L2.65846 5.8092L6.75833 9.16909L2.25 5.47445ZM2.25 5.47445V6.00256M2.25 5.47445V6.00256M2.25 6.00256V12.2892C2.25 12.5323 2.34658 12.7655 2.51849 12.9374C2.69039 13.1093 2.92355 13.2059 3.16667 13.2059H13.8333C14.0764 13.2059 14.3096 13.1093 14.4815 12.9374C14.6534 12.7655 14.75 12.5323 14.75 12.2892V6.00256V5.47445M2.25 6.00256L14.75 5.47445M14.75 5.47445L14.3415 5.8092M14.75 5.47445L14.3415 5.8092M14.3415 5.8092L10.2417 9.16909M14.3415 5.8092L10.2417 9.16909M10.2417 9.16909C9.75031 9.57121 9.13493 9.79092 8.5 9.79092M10.2417 9.16909L8.5 9.79092M8.5 9.79092C7.86512 9.79092 7.2498 9.57125 6.75846 9.1692L8.5 9.79092ZM0.75 4.28923C0.75 3.64829 1.00461 3.0336 1.45783 2.58038C1.91104 2.12717 2.52573 1.87256 3.16667 1.87256H13.8333C14.4743 1.87256 15.089 2.12717 15.5422 2.58038C15.9954 3.0336 16.25 3.64829 16.25 4.28923V12.2892C16.25 12.9302 15.9954 13.5449 15.5422 13.9981C15.089 14.4513 14.4743 14.7059 13.8333 14.7059H3.16667C2.52573 14.7059 1.91104 14.4513 1.45783 13.9981C1.00461 13.5449 0.75 12.9302 0.75 12.2892V4.28923Z" fill="#CDCDCD" stroke="white" stroke-width="0.5"/>
</g>
<defs>
<clipPath id="clip0_1785_3639">
<rect width="16" height="16" fill="white" transform="translate(0.5 0.289062)"/>
</clipPath>
</defs>
</svg>
